<mxfile host="77831091-e9fd-4a31-ba27-6c94563aa1b4" modified="2020-09-22T09:54:37.609Z" agent="5.0 (Windows NT 10.0; Win64; x64) AppleWebKit/537.36 (KHTML, like Gecko) Code/1.49.1 Chrome/83.0.4103.122 Electron/9.2.1 Safari/537.36" etag="ILxepuQSPHXNGqVPOGqH" version="13.1.3">
    <diagram id="6hGFLwfOUW9BJ-s0fimq" name="Page-1">
        <mxGraphModel dx="1944" dy="540" grid="1" gridSize="10" guides="1" tooltips="1" connect="1" arrows="1" fold="1" page="1" pageScale="1" pageWidth="827" pageHeight="1169" math="0" shadow="0">
            <root>
                <mxCell id="0"/>
                <mxCell id="1" parent="0"/>
                <mxCell id="31" style="edgeStyle=orthogonalEdgeStyle;rounded=0;orthogonalLoop=1;jettySize=auto;html=1;exitX=1;exitY=0.25;exitDx=0;exitDy=0;" edge="1" parent="1" source="2" target="17">
                    <mxGeometry relative="1" as="geometry"/>
                </mxCell>
                <mxCell id="2" value="Users" style="swimlane;startSize=30;" vertex="1" parent="1">
                    <mxGeometry x="40" y="120" width="160" height="200" as="geometry"/>
                </mxCell>
                <mxCell id="8" value="key: user_id" style="shape=ext;double=1;rounded=1;whiteSpace=wrap;html=1;" vertex="1" parent="2">
                    <mxGeometry y="40" width="160" height="40" as="geometry"/>
                </mxCell>
                <mxCell id="32" value="name" style="shape=ext;double=1;rounded=1;whiteSpace=wrap;html=1;" vertex="1" parent="2">
                    <mxGeometry y="80" width="160" height="40" as="geometry"/>
                </mxCell>
                <mxCell id="33" value="email" style="shape=ext;double=1;rounded=1;whiteSpace=wrap;html=1;" vertex="1" parent="2">
                    <mxGeometry y="120" width="160" height="40" as="geometry"/>
                </mxCell>
                <mxCell id="34" value="password" style="shape=ext;double=1;rounded=1;whiteSpace=wrap;html=1;" vertex="1" parent="2">
                    <mxGeometry y="160" width="160" height="40" as="geometry"/>
                </mxCell>
                <mxCell id="3" value="Posts" style="swimlane;startSize=30;" vertex="1" parent="1">
                    <mxGeometry x="320" width="160" height="200" as="geometry"/>
                </mxCell>
                <mxCell id="18" value="key: post_id" style="shape=ext;double=1;rounded=1;whiteSpace=wrap;html=1;" vertex="1" parent="3">
                    <mxGeometry y="40" width="160" height="40" as="geometry"/>
                </mxCell>
                <mxCell id="17" value="Foreign_key: author" style="shape=ext;double=1;rounded=1;whiteSpace=wrap;html=1;" vertex="1" parent="3">
                    <mxGeometry y="80" width="160" height="40" as="geometry"/>
                </mxCell>
                <mxCell id="9" value="Content" style="shape=ext;double=1;rounded=1;whiteSpace=wrap;html=1;" vertex="1" parent="3">
                    <mxGeometry y="120" width="160" height="40" as="geometry"/>
                </mxCell>
                <mxCell id="4" value="Comments" style="swimlane;startSize=30;" vertex="1" parent="1">
                    <mxGeometry x="320" y="240" width="160" height="200" as="geometry"/>
                </mxCell>
                <mxCell id="16" value="key: comment_id" style="shape=ext;double=1;rounded=1;whiteSpace=wrap;html=1;" vertex="1" parent="4">
                    <mxGeometry y="40" width="160" height="40" as="geometry"/>
                </mxCell>
                <mxCell id="15" value="Foreign_key: author" style="shape=ext;double=1;rounded=1;whiteSpace=wrap;html=1;" vertex="1" parent="4">
                    <mxGeometry y="80" width="160" height="40" as="geometry"/>
                </mxCell>
                <mxCell id="14" value="Foreign_key: post_id" style="shape=ext;double=1;rounded=1;whiteSpace=wrap;html=1;" vertex="1" parent="4">
                    <mxGeometry y="120" width="160" height="40" as="geometry"/>
                </mxCell>
                <mxCell id="7" value="Content" style="shape=ext;double=1;rounded=1;whiteSpace=wrap;html=1;" vertex="1" parent="4">
                    <mxGeometry y="160" width="160" height="40" as="geometry"/>
                </mxCell>
                <mxCell id="5" value="Likes" style="swimlane;startSize=30;" vertex="1" parent="1">
                    <mxGeometry x="-240" width="160" height="200" as="geometry"/>
                </mxCell>
                <mxCell id="13" value="key: like_id" style="shape=ext;double=1;rounded=1;whiteSpace=wrap;html=1;" vertex="1" parent="5">
                    <mxGeometry y="40" width="160" height="40" as="geometry"/>
                </mxCell>
                <mxCell id="12" value="Foreign_key: post_id" style="shape=ext;double=1;rounded=1;whiteSpace=wrap;html=1;" vertex="1" parent="5">
                    <mxGeometry y="80" width="160" height="40" as="geometry"/>
                </mxCell>
                <mxCell id="11" value="Foreign_key: author" style="shape=ext;double=1;rounded=1;whiteSpace=wrap;html=1;" vertex="1" parent="5">
                    <mxGeometry y="120" width="160" height="40" as="geometry"/>
                </mxCell>
                <mxCell id="10" value="value (default:1)" style="shape=ext;double=1;rounded=1;whiteSpace=wrap;html=1;" vertex="1" parent="5">
                    <mxGeometry y="160" width="160" height="40" as="geometry"/>
                </mxCell>
                <mxCell id="20" value="" style="edgeStyle=segmentEdgeStyle;endArrow=classic;html=1;exitX=1;exitY=0.75;exitDx=0;exitDy=0;" edge="1" parent="1" source="8">
                    <mxGeometry width="50" height="50" relative="1" as="geometry">
                        <mxPoint x="190" y="350" as="sourcePoint"/>
                        <mxPoint x="320" y="340" as="targetPoint"/>
                        <Array as="points">
                            <mxPoint x="240" y="190"/>
                            <mxPoint x="240" y="340"/>
                            <mxPoint x="320" y="340"/>
                        </Array>
                    </mxGeometry>
                </mxCell>
                <mxCell id="21" value="Friends" style="swimlane;startSize=30;" vertex="1" parent="1">
                    <mxGeometry x="-240" y="240" width="160" height="200" as="geometry"/>
                </mxCell>
                <mxCell id="22" value="Foreign_key: user_id" style="shape=ext;double=1;rounded=1;whiteSpace=wrap;html=1;" vertex="1" parent="21">
                    <mxGeometry y="40" width="160" height="40" as="geometry"/>
                </mxCell>
                <mxCell id="23" value="Foreign_key: friend_id" style="shape=ext;double=1;rounded=1;whiteSpace=wrap;html=1;" vertex="1" parent="21">
                    <mxGeometry y="80" width="160" height="40" as="geometry"/>
                </mxCell>
                <mxCell id="27" value="" style="edgeStyle=elbowEdgeStyle;elbow=horizontal;endArrow=classic;html=1;exitX=0;exitY=0.5;exitDx=0;exitDy=0;" edge="1" parent="1" source="8" target="21">
                    <mxGeometry width="50" height="50" relative="1" as="geometry">
                        <mxPoint x="-40" y="270" as="sourcePoint"/>
                        <mxPoint x="10" y="220" as="targetPoint"/>
                        <Array as="points">
                            <mxPoint x="-15" y="250"/>
                        </Array>
                    </mxGeometry>
                </mxCell>
                <mxCell id="28" value="" style="edgeStyle=segmentEdgeStyle;endArrow=classic;html=1;exitX=1;exitY=0.75;exitDx=0;exitDy=0;entryX=1;entryY=0.5;entryDx=0;entryDy=0;" edge="1" parent="1" target="14">
                    <mxGeometry width="50" height="50" relative="1" as="geometry">
                        <mxPoint x="480" y="60" as="sourcePoint"/>
                        <mxPoint x="490" y="380" as="targetPoint"/>
                        <Array as="points">
                            <mxPoint x="520" y="60"/>
                            <mxPoint x="520" y="380"/>
                        </Array>
                    </mxGeometry>
                </mxCell>
                <mxCell id="29" style="edgeStyle=orthogonalEdgeStyle;rounded=0;orthogonalLoop=1;jettySize=auto;html=1;exitX=0;exitY=0.5;exitDx=0;exitDy=0;entryX=1;entryY=0.5;entryDx=0;entryDy=0;" edge="1" parent="1" source="18" target="5">
                    <mxGeometry relative="1" as="geometry"/>
                </mxCell>
                <mxCell id="30" style="edgeStyle=orthogonalEdgeStyle;rounded=0;orthogonalLoop=1;jettySize=auto;html=1;exitX=0;exitY=0.5;exitDx=0;exitDy=0;entryX=1;entryY=0.5;entryDx=0;entryDy=0;" edge="1" parent="1" source="8" target="11">
                    <mxGeometry relative="1" as="geometry"/>
                </mxCell>
            </root>
        </mxGraphModel>
    </diagram>
</mxfile>